<svg width="148" height="148" viewBox="0 0 148 148" fill="none" xmlns="http://www.w3.org/2000/svg">
<g clip-path="url(#clip0_2111_1783)">
<circle opacity="0.3" cx="74" cy="74" r="71" stroke="#5A87FC" stroke-width="6"/>
<path d="M74 142C111.555 142 142 111.555 142 74C142 36.4446 111.555 6 74 6V0C114.869 0 148 33.1309 148 74C148 114.869 114.869 148 74 148C33.1309 148 0 114.869 0 74C0 62.1418 2.78922 50.935 7.74738 41L13.2072 43.5C8.59608 52.673 6 63.0333 6 74C6 111.555 36.4446 142 74 142Z" fill="#5A87FC"/>
<path d="M46.373 74.096C46.8637 74.096 47.3757 74.0533 47.909 73.968C48.4423 73.8613 48.837 73.7227 49.093 73.552V73.264C49.093 73.1787 49.093 73.0933 49.093 73.008C49.1143 72.9227 49.125 72.848 49.125 72.784C49.1037 72.016 49.0397 71.3013 48.933 70.64C48.8263 69.9573 48.645 69.3707 48.389 68.88C48.133 68.368 47.781 67.9733 47.333 67.696C46.9063 67.3973 46.373 67.248 45.733 67.248C45.221 67.248 44.773 67.3547 44.389 67.568C44.005 67.7813 43.6957 68.0587 43.461 68.4C43.2263 68.7413 43.045 69.1147 42.917 69.52C42.8103 69.9253 42.757 70.32 42.757 70.704C42.757 71.856 43.0343 72.7093 43.589 73.264C44.165 73.8187 45.093 74.096 46.373 74.096ZM48.709 77.2C48.261 77.4133 47.7597 77.5733 47.205 77.68C46.6717 77.7653 46.213 77.808 45.829 77.808C44.4423 77.808 43.2583 77.648 42.277 77.328C41.2957 76.9867 40.485 76.5173 39.845 75.92C39.2263 75.3013 38.7677 74.5653 38.469 73.712C38.1703 72.8587 38.021 71.92 38.021 70.896C38.021 70.0427 38.1597 69.168 38.437 68.272C38.7357 67.376 39.1943 66.5653 39.813 65.84C40.4317 65.0933 41.2103 64.4853 42.149 64.016C43.109 63.5253 44.261 63.28 45.605 63.28C48.357 63.28 50.4263 64.1333 51.813 65.84C53.221 67.5253 53.925 69.9573 53.925 73.136C53.925 75.2267 53.6477 77.072 53.093 78.672C52.5597 80.272 51.717 81.616 50.565 82.704C49.4343 83.792 47.9837 84.624 46.213 85.2C44.4423 85.7547 42.341 86.0427 39.909 86.064C39.8877 85.3813 39.8557 84.72 39.813 84.08C39.7703 83.44 39.7277 82.7787 39.685 82.096C40.901 82.0747 41.9997 81.9893 42.981 81.84C43.9623 81.6693 44.8263 81.4027 45.573 81.04C46.3197 80.656 46.949 80.1547 47.461 79.536C47.9943 78.9173 48.4103 78.1387 48.709 77.2ZM65.5205 69.648C64.6885 70.736 63.8032 71.92 62.8645 73.2C61.9258 74.48 61.1365 75.792 60.4965 77.136H65.5205V69.648ZM70.1925 63.824V77.136H72.5605V81.04H70.1925V86H65.5205V81.04H55.9525V77.552C56.4218 76.6133 57.0085 75.5573 57.7125 74.384C58.4165 73.1893 59.1952 71.9733 60.0485 70.736C60.9232 69.4773 61.8405 68.2507 62.8005 67.056C63.7605 65.8613 64.7205 64.784 65.6805 63.824H70.1925ZM85.02 79.472C85.02 78.8533 84.8813 78.3093 84.604 77.84C84.3267 77.3493 83.8467 76.944 83.164 76.624C82.4813 76.304 81.564 76.0587 80.412 75.888C79.26 75.7173 77.8093 75.632 76.06 75.632C76.2947 73.648 76.4867 71.632 76.636 69.584C76.7853 67.536 76.9027 65.616 76.988 63.824H88.988V67.824H80.988C80.9453 68.592 80.892 69.3387 80.828 70.064C80.7853 70.768 80.732 71.3867 80.668 71.92C83.7827 72.1333 86.076 72.8693 87.548 74.128C89.0413 75.3653 89.788 77.0933 89.788 79.312C89.788 80.336 89.6067 81.2853 89.244 82.16C88.8813 83.0347 88.3373 83.792 87.612 84.432C86.8867 85.072 85.9693 85.5733 84.86 85.936C83.772 86.2987 82.492 86.48 81.02 86.48C80.444 86.48 79.836 86.4373 79.196 86.352C78.5773 86.288 77.9693 86.192 77.372 86.064C76.796 85.9573 76.2733 85.84 75.804 85.712C75.3347 85.584 74.972 85.456 74.716 85.328L75.58 81.392C76.1133 81.6267 76.8173 81.8613 77.692 82.096C78.5667 82.3093 79.612 82.416 80.828 82.416C82.3 82.416 83.3667 82.128 84.028 81.552C84.6893 80.9547 85.02 80.2613 85.02 79.472ZM107.56 69.648C107.56 70.4587 107.4 71.2373 107.08 71.984C106.76 72.7307 106.344 73.456 105.832 74.16C105.32 74.8427 104.744 75.504 104.104 76.144C103.464 76.784 102.834 77.392 102.216 77.968C101.896 78.2667 101.544 78.608 101.16 78.992C100.797 79.3547 100.445 79.728 100.104 80.112C99.7622 80.496 99.4528 80.8587 99.1755 81.2C98.9195 81.52 98.7595 81.7867 98.6955 82H108.232V86H93.4475C93.4048 85.7653 93.3835 85.4667 93.3835 85.104C93.3835 84.7413 93.3835 84.4853 93.3835 84.336C93.3835 83.312 93.5435 82.3733 93.8635 81.52C94.2048 80.6667 94.6422 79.8773 95.1755 79.152C95.7088 78.4053 96.3062 77.712 96.9675 77.072C97.6502 76.432 98.3222 75.792 98.9835 75.152C99.4955 74.6613 99.9755 74.2027 100.424 73.776C100.872 73.328 101.266 72.9013 101.608 72.496C101.949 72.0693 102.216 71.6533 102.408 71.248C102.6 70.8213 102.696 70.3947 102.696 69.968C102.696 69.0293 102.429 68.368 101.896 67.984C101.362 67.6 100.701 67.408 99.9115 67.408C99.3355 67.408 98.7915 67.504 98.2795 67.696C97.7888 67.8667 97.3302 68.08 96.9035 68.336C96.4982 68.5707 96.1462 68.816 95.8475 69.072C95.5488 69.3067 95.3248 69.4987 95.1755 69.648L92.8075 66.32C93.7462 65.4453 94.8342 64.7307 96.0715 64.176C97.3302 63.6 98.6742 63.312 100.104 63.312C101.405 63.312 102.525 63.4613 103.464 63.76C104.402 64.0587 105.17 64.4853 105.768 65.04C106.386 65.5733 106.834 66.2347 107.112 67.024C107.41 67.792 107.56 68.6667 107.56 69.648Z" fill="#1E212C"/>
</g>
<defs>
<clipPath id="clip0_2111_1783">
<rect width="148" height="148" fill="white"/>
</clipPath>
</defs>
</svg>
