<svg width="148" height="148" viewBox="0 0 148 148" fill="none" xmlns="http://www.w3.org/2000/svg">
<g clip-path="url(#clip0_2111_1789)">
<circle opacity="0.3" cx="74" cy="74" r="71" stroke="#F52F6E" stroke-width="6"/>
<path d="M74 142C111.555 142 142 111.555 142 74C142 36.4446 111.555 6 74 6V0C114.869 0 148 33.1309 148 74C148 114.869 114.869 148 74 148C33.1309 148 0 114.869 0 74H6C6 111.555 36.4446 142 74 142Z" fill="#F52F6E"/>
<path d="M71.1845 69.648C71.1845 70.4587 71.0245 71.2373 70.7045 71.984C70.3845 72.7307 69.9685 73.456 69.4565 74.16C68.9445 74.8427 68.3685 75.504 67.7285 76.144C67.0885 76.784 66.4592 77.392 65.8405 77.968C65.5205 78.2667 65.1685 78.608 64.7845 78.992C64.4218 79.3547 64.0698 79.728 63.7285 80.112C63.3872 80.496 63.0778 80.8587 62.8005 81.2C62.5445 81.52 62.3845 81.7867 62.3205 82H71.8565V86H57.0725C57.0298 85.7653 57.0085 85.4667 57.0085 85.104C57.0085 84.7413 57.0085 84.4853 57.0085 84.336C57.0085 83.312 57.1685 82.3733 57.4885 81.52C57.8298 80.6667 58.2672 79.8773 58.8005 79.152C59.3338 78.4053 59.9312 77.712 60.5925 77.072C61.2752 76.432 61.9472 75.792 62.6085 75.152C63.1205 74.6613 63.6005 74.2027 64.0485 73.776C64.4965 73.328 64.8912 72.9013 65.2325 72.496C65.5738 72.0693 65.8405 71.6533 66.0325 71.248C66.2245 70.8213 66.3205 70.3947 66.3205 69.968C66.3205 69.0293 66.0538 68.368 65.5205 67.984C64.9872 67.6 64.3258 67.408 63.5365 67.408C62.9605 67.408 62.4165 67.504 61.9045 67.696C61.4138 67.8667 60.9552 68.08 60.5285 68.336C60.1232 68.5707 59.7712 68.816 59.4725 69.072C59.1738 69.3067 58.9498 69.4987 58.8005 69.648L56.4325 66.32C57.3712 65.4453 58.4592 64.7307 59.6965 64.176C60.9552 63.6 62.2992 63.312 63.7285 63.312C65.0298 63.312 66.1498 63.4613 67.0885 63.76C68.0272 64.0587 68.7952 64.4853 69.3925 65.04C70.0112 65.5733 70.4592 66.2347 70.7365 67.024C71.0352 67.792 71.1845 68.6667 71.1845 69.648ZM90.588 74.864C90.588 78.5973 89.8733 81.4667 88.444 83.472C87.036 85.456 85.084 86.448 82.588 86.448C80.092 86.448 78.1293 85.456 76.7 83.472C75.292 81.4667 74.588 78.5973 74.588 74.864C74.588 73.008 74.7693 71.3653 75.132 69.936C75.516 68.5067 76.06 67.3013 76.764 66.32C77.468 65.3387 78.3107 64.592 79.292 64.08C80.2733 63.568 81.372 63.312 82.588 63.312C85.084 63.312 87.036 64.3147 88.444 66.32C89.8733 68.304 90.588 71.152 90.588 74.864ZM85.724 74.864C85.724 73.7547 85.6707 72.752 85.564 71.856C85.4573 70.9387 85.2867 70.1493 85.052 69.488C84.8173 68.8267 84.4973 68.3147 84.092 67.952C83.6867 67.5893 83.1853 67.408 82.588 67.408C81.9907 67.408 81.4893 67.5893 81.084 67.952C80.7 68.3147 80.38 68.8267 80.124 69.488C79.8893 70.1493 79.7187 70.9387 79.612 71.856C79.5053 72.752 79.452 73.7547 79.452 74.864C79.452 75.9733 79.5053 76.9867 79.612 77.904C79.7187 78.8213 79.8893 79.6107 80.124 80.272C80.38 80.9333 80.7 81.4453 81.084 81.808C81.4893 82.1707 81.9907 82.352 82.588 82.352C83.1853 82.352 83.6867 82.1707 84.092 81.808C84.4973 81.4453 84.8173 80.9333 85.052 80.272C85.2867 79.6107 85.4573 78.8213 85.564 77.904C85.6707 76.9867 85.724 75.9733 85.724 74.864Z" fill="#1E212C"/>
</g>
<defs>
<clipPath id="clip0_2111_1789">
<rect width="148" height="148" fill="white"/>
</clipPath>
</defs>
</svg>
