<svg width="148" height="148" viewBox="0 0 148 148" fill="none" xmlns="http://www.w3.org/2000/svg">
<g clip-path="url(#clip0_2111_1778)">
<circle cx="74" cy="74" r="71" stroke="#03CEA4" stroke-width="6"/>
<path d="M33.2713 68.432C33.8899 68.176 34.5299 67.888 35.1913 67.568C35.8739 67.2267 36.5353 66.864 37.1753 66.48C37.8153 66.0747 38.4233 65.6587 38.9993 65.232C39.5966 64.784 40.1299 64.3147 40.5993 63.824H43.9273V86H39.1593V70.032C38.5193 70.4587 37.8046 70.8533 37.0153 71.216C36.2259 71.5573 35.4579 71.856 34.7113 72.112L33.2713 68.432ZM66.3068 74.864C66.3068 78.5973 65.5921 81.4667 64.1628 83.472C62.7548 85.456 60.8028 86.448 58.3068 86.448C55.8108 86.448 53.8481 85.456 52.4188 83.472C51.0108 81.4667 50.3068 78.5973 50.3068 74.864C50.3068 73.008 50.4881 71.3653 50.8508 69.936C51.2348 68.5067 51.7788 67.3013 52.4828 66.32C53.1868 65.3387 54.0294 64.592 55.0108 64.08C55.9921 63.568 57.0908 63.312 58.3068 63.312C60.8028 63.312 62.7548 64.3147 64.1628 66.32C65.5921 68.304 66.3068 71.152 66.3068 74.864ZM61.4428 74.864C61.4428 73.7547 61.3894 72.752 61.2828 71.856C61.1761 70.9387 61.0054 70.1493 60.7708 69.488C60.5361 68.8267 60.2161 68.3147 59.8108 67.952C59.4054 67.5893 58.9041 67.408 58.3068 67.408C57.7094 67.408 57.2081 67.5893 56.8028 67.952C56.4188 68.3147 56.0988 68.8267 55.8428 69.488C55.6081 70.1493 55.4374 70.9387 55.3308 71.856C55.2241 72.752 55.1708 73.7547 55.1708 74.864C55.1708 75.9733 55.2241 76.9867 55.3308 77.904C55.4374 78.8213 55.6081 79.6107 55.8428 80.272C56.0988 80.9333 56.4188 81.4453 56.8028 81.808C57.2081 82.1707 57.7094 82.352 58.3068 82.352C58.9041 82.352 59.4054 82.1707 59.8108 81.808C60.2161 81.4453 60.5361 80.9333 60.7708 80.272C61.0054 79.6107 61.1761 78.8213 61.2828 77.904C61.3894 76.9867 61.4428 75.9733 61.4428 74.864ZM84.4943 74.864C84.4943 78.5973 83.7796 81.4667 82.3503 83.472C80.9423 85.456 78.9903 86.448 76.4943 86.448C73.9983 86.448 72.0356 85.456 70.6063 83.472C69.1983 81.4667 68.4943 78.5973 68.4943 74.864C68.4943 73.008 68.6756 71.3653 69.0383 69.936C69.4223 68.5067 69.9663 67.3013 70.6703 66.32C71.3743 65.3387 72.2169 64.592 73.1983 64.08C74.1796 63.568 75.2783 63.312 76.4943 63.312C78.9903 63.312 80.9423 64.3147 82.3503 66.32C83.7796 68.304 84.4943 71.152 84.4943 74.864ZM79.6303 74.864C79.6303 73.7547 79.5769 72.752 79.4703 71.856C79.3636 70.9387 79.1929 70.1493 78.9583 69.488C78.7236 68.8267 78.4036 68.3147 77.9983 67.952C77.5929 67.5893 77.0916 67.408 76.4943 67.408C75.8969 67.408 75.3956 67.5893 74.9903 67.952C74.6063 68.3147 74.2863 68.8267 74.0303 69.488C73.7956 70.1493 73.6249 70.9387 73.5183 71.856C73.4116 72.752 73.3583 73.7547 73.3583 74.864C73.3583 75.9733 73.4116 76.9867 73.5183 77.904C73.6249 78.8213 73.7956 79.6107 74.0303 80.272C74.2863 80.9333 74.6063 81.4453 74.9903 81.808C75.3956 82.1707 75.8969 82.352 76.4943 82.352C77.0916 82.352 77.5929 82.1707 77.9983 81.808C78.4036 81.4453 78.7236 80.9333 78.9583 80.272C79.1929 79.6107 79.3636 78.8213 79.4703 77.904C79.5769 76.9867 79.6303 75.9733 79.6303 74.864ZM98.0418 69.52C98.0418 71.5253 97.5298 73.0613 96.5058 74.128C95.4818 75.1947 94.1058 75.728 92.3778 75.728C90.6498 75.728 89.2738 75.1947 88.2498 74.128C87.2258 73.0613 86.7138 71.5253 86.7138 69.52C86.7138 67.5147 87.2258 65.9787 88.2498 64.912C89.2738 63.8453 90.6498 63.312 92.3778 63.312C94.1058 63.312 95.4818 63.8453 96.5058 64.912C97.5298 65.9787 98.0418 67.5147 98.0418 69.52ZM94.4258 69.52C94.4258 68.432 94.2338 67.6427 93.8498 67.152C93.4658 66.6613 92.9751 66.416 92.3778 66.416C91.7591 66.416 91.2578 66.6613 90.8738 67.152C90.5111 67.6427 90.3298 68.432 90.3298 69.52C90.3298 70.608 90.5111 71.408 90.8738 71.92C91.2578 72.4107 91.7591 72.656 92.3778 72.656C92.9751 72.656 93.4658 72.4107 93.8498 71.92C94.2338 71.408 94.4258 70.608 94.4258 69.52ZM104.282 63.824H108.73L96.2178 86H91.7698L104.282 63.824ZM113.85 80.304C113.85 82.3093 113.338 83.8453 112.314 84.912C111.29 85.9787 109.914 86.512 108.186 86.512C106.458 86.512 105.082 85.9787 104.058 84.912C103.034 83.8453 102.522 82.3093 102.522 80.304C102.522 78.2987 103.034 76.7627 104.058 75.696C105.082 74.6293 106.458 74.096 108.186 74.096C109.914 74.096 111.29 74.6293 112.314 75.696C113.338 76.7627 113.85 78.2987 113.85 80.304ZM110.234 80.304C110.234 79.216 110.042 78.4267 109.658 77.936C109.274 77.4453 108.783 77.2 108.186 77.2C107.567 77.2 107.066 77.4453 106.682 77.936C106.319 78.4267 106.138 79.216 106.138 80.304C106.138 81.392 106.319 82.192 106.682 82.704C107.066 83.1947 107.567 83.44 108.186 83.44C108.783 83.44 109.274 83.1947 109.658 82.704C110.042 82.192 110.234 81.392 110.234 80.304Z" fill="#1E212C"/>
</g>
<defs>
<clipPath id="clip0_2111_1778">
<rect width="148" height="148" fill="white"/>
</clipPath>
</defs>
</svg>
