<svg width="148" height="148" viewBox="0 0 148 148" fill="none" xmlns="http://www.w3.org/2000/svg">
<g clip-path="url(#clip0_2111_1795)">
<circle opacity="0.3" cx="74" cy="74" r="71" stroke="#F89828" stroke-width="6"/>
<path d="M74 142C111.555 142 142 111.555 142 74C142 36.4446 111.555 6 74 6V0C114.869 0 148 33.1309 148 74C148 114.869 114.869 148 74 148C33.1309 148 0 114.869 0 74C0 51.3485 10.1774 31.0741 26.209 17.5L30 22.1523C15.3167 34.6254 6 53.2247 6 74C6 111.555 36.4446 142 74 142Z" fill="#F89828"/>
<path d="M49.373 74.096C49.8637 74.096 50.3757 74.0533 50.909 73.968C51.4423 73.8613 51.837 73.7227 52.093 73.552V73.264C52.093 73.1787 52.093 73.0933 52.093 73.008C52.1143 72.9227 52.125 72.848 52.125 72.784C52.1037 72.016 52.0397 71.3013 51.933 70.64C51.8263 69.9573 51.645 69.3707 51.389 68.88C51.133 68.368 50.781 67.9733 50.333 67.696C49.9063 67.3973 49.373 67.248 48.733 67.248C48.221 67.248 47.773 67.3547 47.389 67.568C47.005 67.7813 46.6957 68.0587 46.461 68.4C46.2263 68.7413 46.045 69.1147 45.917 69.52C45.8103 69.9253 45.757 70.32 45.757 70.704C45.757 71.856 46.0343 72.7093 46.589 73.264C47.165 73.8187 48.093 74.096 49.373 74.096ZM51.709 77.2C51.261 77.4133 50.7597 77.5733 50.205 77.68C49.6717 77.7653 49.213 77.808 48.829 77.808C47.4423 77.808 46.2583 77.648 45.277 77.328C44.2957 76.9867 43.485 76.5173 42.845 75.92C42.2263 75.3013 41.7677 74.5653 41.469 73.712C41.1703 72.8587 41.021 71.92 41.021 70.896C41.021 70.0427 41.1597 69.168 41.437 68.272C41.7357 67.376 42.1943 66.5653 42.813 65.84C43.4317 65.0933 44.2103 64.4853 45.149 64.016C46.109 63.5253 47.261 63.28 48.605 63.28C51.357 63.28 53.4263 64.1333 54.813 65.84C56.221 67.5253 56.925 69.9573 56.925 73.136C56.925 75.2267 56.6477 77.072 56.093 78.672C55.5597 80.272 54.717 81.616 53.565 82.704C52.4343 83.792 50.9837 84.624 49.213 85.2C47.4423 85.7547 45.341 86.0427 42.909 86.064C42.8877 85.3813 42.8557 84.72 42.813 84.08C42.7703 83.44 42.7277 82.7787 42.685 82.096C43.901 82.0747 44.9997 81.9893 45.981 81.84C46.9623 81.6693 47.8263 81.4027 48.573 81.04C49.3197 80.656 49.949 80.1547 50.461 79.536C50.9943 78.9173 51.4103 78.1387 51.709 77.2ZM75.2725 79.824C75.2725 80.784 75.1018 81.6693 74.7605 82.48C74.4405 83.2693 73.9498 83.9627 73.2885 84.56C72.6272 85.1573 71.7952 85.6267 70.7925 85.968C69.8112 86.288 68.6698 86.448 67.3685 86.448C65.8752 86.448 64.6272 86.2453 63.6245 85.84C62.6432 85.4133 61.8432 84.8907 61.2245 84.272C60.6272 83.6533 60.2005 82.9813 59.9445 82.256C59.6885 81.5093 59.5605 80.8267 59.5605 80.208C59.5605 79.568 59.6458 78.9813 59.8165 78.448C59.9872 77.9147 60.2218 77.4347 60.5205 77.008C60.8192 76.56 61.1498 76.1547 61.5125 75.792C61.8965 75.4293 62.3018 75.088 62.7285 74.768C61.8112 74.0213 61.1285 73.2853 60.6805 72.56C60.2538 71.8347 60.0405 70.9067 60.0405 69.776C60.0405 68.9227 60.2112 68.1013 60.5525 67.312C60.9152 66.5227 61.4165 65.84 62.0565 65.264C62.6965 64.6667 63.4645 64.1973 64.3605 63.856C65.2778 63.4933 66.2912 63.312 67.4005 63.312C68.7018 63.312 69.8112 63.504 70.7285 63.888C71.6672 64.2507 72.4352 64.72 73.0325 65.296C73.6298 65.872 74.0565 66.5227 74.3125 67.248C74.5898 67.952 74.7285 68.656 74.7285 69.36C74.7285 70.384 74.4512 71.344 73.8965 72.24C73.3632 73.1147 72.6912 73.808 71.8805 74.32C73.0965 75.1093 73.9605 75.9413 74.4725 76.816C75.0058 77.6693 75.2725 78.672 75.2725 79.824ZM64.2005 80.016C64.2005 80.272 64.2538 80.56 64.3605 80.88C64.4885 81.1787 64.6805 81.456 64.9365 81.712C65.1925 81.968 65.5232 82.1813 65.9285 82.352C66.3338 82.5227 66.8245 82.608 67.4005 82.608C68.5098 82.608 69.3205 82.3413 69.8325 81.808C70.3445 81.2747 70.6005 80.6773 70.6005 80.016C70.6005 79.5253 70.4832 79.088 70.2485 78.704C70.0352 78.32 69.7365 77.9893 69.3525 77.712C68.9685 77.4133 68.5098 77.1573 67.9765 76.944C67.4645 76.7093 66.9098 76.496 66.3125 76.304C65.7152 76.752 65.2138 77.2747 64.8085 77.872C64.4032 78.4693 64.2005 79.184 64.2005 80.016ZM70.1205 69.488C70.1205 69.2533 70.0672 69.008 69.9605 68.752C69.8752 68.4747 69.7152 68.2187 69.4805 67.984C69.2672 67.7493 68.9898 67.5573 68.6485 67.408C68.3072 67.2373 67.8912 67.152 67.4005 67.152C66.9312 67.152 66.5258 67.2267 66.1845 67.376C65.8432 67.5253 65.5552 67.728 65.3205 67.984C65.1072 68.2187 64.9472 68.4747 64.8405 68.752C64.7338 69.0293 64.6805 69.296 64.6805 69.552C64.6805 70.2347 64.9258 70.8747 65.4165 71.472C65.9285 72.0693 66.7925 72.5813 68.0085 73.008C68.6912 72.5813 69.2138 72.0907 69.5765 71.536C69.9392 70.9813 70.1205 70.2987 70.1205 69.488ZM88.948 69.52C88.948 71.5253 88.436 73.0613 87.412 74.128C86.388 75.1947 85.012 75.728 83.284 75.728C81.556 75.728 80.18 75.1947 79.156 74.128C78.132 73.0613 77.62 71.5253 77.62 69.52C77.62 67.5147 78.132 65.9787 79.156 64.912C80.18 63.8453 81.556 63.312 83.284 63.312C85.012 63.312 86.388 63.8453 87.412 64.912C88.436 65.9787 88.948 67.5147 88.948 69.52ZM85.332 69.52C85.332 68.432 85.14 67.6427 84.756 67.152C84.372 66.6613 83.8813 66.416 83.284 66.416C82.6653 66.416 82.164 66.6613 81.78 67.152C81.4173 67.6427 81.236 68.432 81.236 69.52C81.236 70.608 81.4173 71.408 81.78 71.92C82.164 72.4107 82.6653 72.656 83.284 72.656C83.8813 72.656 84.372 72.4107 84.756 71.92C85.14 71.408 85.332 70.608 85.332 69.52ZM95.188 63.824H99.636L87.124 86H82.676L95.188 63.824ZM104.756 80.304C104.756 82.3093 104.244 83.8453 103.22 84.912C102.196 85.9787 100.82 86.512 99.092 86.512C97.364 86.512 95.988 85.9787 94.964 84.912C93.94 83.8453 93.428 82.3093 93.428 80.304C93.428 78.2987 93.94 76.7627 94.964 75.696C95.988 74.6293 97.364 74.096 99.092 74.096C100.82 74.096 102.196 74.6293 103.22 75.696C104.244 76.7627 104.756 78.2987 104.756 80.304ZM101.14 80.304C101.14 79.216 100.948 78.4267 100.564 77.936C100.18 77.4453 99.6893 77.2 99.092 77.2C98.4733 77.2 97.972 77.4453 97.588 77.936C97.2253 78.4267 97.044 79.216 97.044 80.304C97.044 81.392 97.2253 82.192 97.588 82.704C97.972 83.1947 98.4733 83.44 99.092 83.44C99.6893 83.44 100.18 83.1947 100.564 82.704C100.948 82.192 101.14 81.392 101.14 80.304Z" fill="#1E212C"/>
</g>
<defs>
<clipPath id="clip0_2111_1795">
<rect width="148" height="148" fill="white"/>
</clipPath>
</defs>
</svg>
